<svg xmlns="http://www.w3.org/2000/svg" width="640" height="520" viewBox="0 0 640 520" role="img" aria-labelledby="title desc">
<title id="title">2L — Rectangular takeoff with curved heel</title><desc id="desc">Connection contours follow the source perspective. Source printed page 164. Reference equivalent length depends on downstream branch count. Review drawing, not to scale.</desc>
<style>text{font-family:Arial,sans-serif;fill:#243b53}path,ellipse{stroke-linecap:round;stroke-linejoin:round}</style>
<rect width="640" height="520" rx="16" fill="white"/>
<text x="32" y="44" font-size="28" font-weight="700">2L</text><text x="96" y="43" font-size="18">Rectangular takeoff with curved heel</text>
<text x="32" y="76" font-size="13">GROUP 2 · SUPPLY AIR · SOURCE PERSPECTIVE</text>
<g transform="translate(182.4561 105) scale(1.122807) translate(-450 -275)" fill="none" stroke="#243b53" stroke-width="1.2"><path d="M460 343.40L690 364.10L690 412.10L460 391.40Z" fill="#f8fafc"/><path d="M460 391.40L690 412.10L690 462.10L460 441.40Z" fill="#e2e8f0"/><g transform="translate(0 -35)"><path d="M500 451Q493 431 510 409L532 383L620 293L672 298V319L586 411V429L553 455Z" fill="white"/><path d="M532 383L585 388L672 298M585 388Q549 421 553 455M585 388V411" /></g></g>
<text x="32" y="448" font-size="13">Connection contours follow the source perspective.</text>
<text x="32" y="473" font-size="13">Reference EL varies with downstream branch count.</text>
<text x="32" y="499" font-size="12">REVIEW DRAWING · NOT TO SCALE · Source: PDF p. 6 / printed p. 164</text>
</svg>
