<svg xmlns="http://www.w3.org/2000/svg" width="640" height="520" viewBox="0 0 640 520" role="img" aria-labelledby="title desc">
<title id="title">4Z — Square grille boot to round branch</title>
<desc id="desc">Clean manually reconstructed Group 4 fitting. Reference equivalent length 60 feet. Drawing not to scale.</desc>
<style>
  text{font-family:Arial,sans-serif;fill:#243b53}
  .part{fill:none;stroke:#243b53;stroke-width:2.4;stroke-linecap:round;stroke-linejoin:round}
</style>
<rect width="640" height="520" rx="16" fill="white"/>
<text x="32" y="44" font-size="28" font-weight="700">4Z</text>
<text x="122" y="43" font-size="17">Square grille boot to round branch</text>
<text x="32" y="76" font-size="13">GROUP 4 · MANUAL VECTOR PILOT</text>
<svg x="48" y="92" width="544" height="330" viewBox="70 35 450 410" preserveAspectRatio="xMidYMid meet">

<defs>
  <clipPath id="grid-4Z"><polygon points="202,103 318,158 232,216 116,158"/></clipPath>
</defs>
<g class="part">
  <polygon points="202,91 333,154 232,225 100,158" fill="#fff"/>
  <polygon points="202,103 318,158 232,216 116,158" fill="#f8fafc"/>
  <g clip-path="url(#grid-4Z)" stroke-width="1.2">
    <path d="M75 104L223 230M94 95L242 221M113 86L261 212M132 77L280 203M151 68L299 194M170 59L318 185M189 50L337 176M208 41L356 167"/>
    <path d="M250 70L74 188M270 80L94 198M290 90L114 208M310 100L134 218M330 110L154 228M350 120L174 238"/>
  </g>
  <path d="M100 158V236L231 304L232 225M333 154V232L292 260" fill="#f8fafc"/>
  <path d="M100 236L231 304L292 260L333 232"/>
  <path d="M263 251L445 353M229 302L414 407" fill="none"/>
  <path d="M445 353C461 344 487 355 499 376C511 398 505 421 489 430C473 439 449 428 436 407C424 386 429 362 445 353Z" fill="#fff"/>
  <path d="M414 407L436 407M445 353L263 251"/>
</g>
</svg>
<text x="32" y="458" font-size="15">Reference equivalent length: 60 ft</text>
<text x="32" y="486" font-size="12">CLEAN MANUAL SVG · NOT TO SCALE · WORKBOOK/PDF PRINTED PAGE 168</text>
</svg>
