<svg xmlns="http://www.w3.org/2000/svg" width="1280" height="700" viewBox="0 0 1280 700" role="img" aria-label="4AM source and SVG comparison">
<rect width="1280" height="700" fill="#f8fafc"/>
<text x="40" y="54" font-family="Arial,sans-serif" font-size="30" font-weight="700" fill="#243b53">4AM · Tapered stack head with front opening</text>
<text x="40" y="100" font-family="Arial,sans-serif" font-size="20" fill="#243b53">Original source crop</text>
<text x="660" y="100" font-family="Arial,sans-serif" font-size="20" fill="#243b53">Source-traced SVG</text>
<rect x="40" y="120" width="580" height="520" rx="12" fill="white" stroke="#cbd5e1"/>
<rect x="660" y="120" width="580" height="520" rx="12" fill="white" stroke="#cbd5e1"/>
<image href="4AM.png" x="60" y="140" width="540" height="480" preserveAspectRatio="xMidYMid meet"/>
<svg x="660" y="120" width="580" height="520" viewBox="0 0 640 520" preserveAspectRatio="xMidYMid meet"><title id="title">4AM — Tapered stack head with front opening</title>
<desc id="desc">Source-traced Group 4 fitting. Reference equivalent length 70 feet at 900 FPM and 0.08 IWC per 100 feet. Drawing not to scale.</desc>
<style>text{font-family:Arial,sans-serif;fill:#243b53}</style>
<rect width="640" height="520" rx="16" fill="white"/>
<text x="32" y="44" font-size="28" font-weight="700">4AM</text>
<text x="112" y="43" font-size="17">Tapered stack head with front opening</text>
<text x="32" y="76" font-size="13">GROUP 4 · SUPPLY AIR BOOT AND STACK HEAD FITTINGS</text>
<svg x="55" y="104" width="530" height="295" viewBox="72 116 297 195" preserveAspectRatio="xMidYMid meet"><path d="M122 126L130 124L158 142L181 150M122 126L114 124L87 142M122 126L122 138L118 139M80 138L87 142M87 142L88 150M88 150L81 158L83 195L91 215L112 240L224 303L237 297M88 150L117 165M181 150L194 145L319 167L327 173M181 150L194 162L232 183M124 154L117 157L117 165M117 165L167 195L189 203M327 173L340 172L352 181L352 186M327 173L323 179L297 190M232 183L244 192M232 183L228 188M251 184L249 190M352 186L353 186M352 186L352 187M353 186L354 187M353 186L353 187M352 187L353 187M352 187L352 188M353 187L354 187M353 187L353 188M354 187L354 188M257 188L249 190M352 188L339 197M352 188L353 188M353 188L354 188M354 188L354 224M249 190L244 192M297 190L290 188L261 199L244 197M297 190L290 200L213 243M244 192L244 197M244 197L220 209M339 197L331 198L318 209M339 197L340 216M189 203L196 197L212 197L220 202L220 209M189 203L210 217M220 209L210 217M318 209L232 258M318 209L327 216L340 216M340 216L354 224M210 217L213 243M354 224L354 229M354 229L243 297L237 297M354 229L361 233M213 243L220 254L232 258M232 258L237 297" fill="none" stroke="#243b53" stroke-width="1.4" stroke-linecap="round" stroke-linejoin="round"/></svg>
<text x="32" y="446" font-size="15">Reference equivalent length: 70 ft</text>
<text x="32" y="474" font-size="12">900 FPM · 0.08 IWC per 100 ft</text>
<text x="32" y="500" font-size="12">SOURCE TRACE · NOT TO SCALE · PDF pp. 18–19 / printed p. 168</text>
</svg>
</svg>
